<svg width="666" height="693" viewBox="0 0 666 693" fill="none" xmlns="http://www.w3.org/2000/svg">
<path d="M640.561 195.252C721.735 338.85 603.759 692.074 356.324 692.074C165.655 692.074 95.4039 546.64 17.9336 408.344C-53.3545 281.083 98.6192 89.9508 284.44 30.531C470.261 -28.8891 491.415 -15.194 640.561 195.252Z" fill="url(#paint0_linear_1_130)"/>
<path d="M640.561 195.252C721.735 338.85 603.759 692.074 356.324 692.074C165.655 692.074 95.4039 546.64 17.9336 408.344C-53.3545 281.083 98.6192 89.9508 284.44 30.531C470.261 -28.8891 491.415 -15.194 640.561 195.252Z" fill="url(#paint1_linear_1_130)"/>
<defs>
<linearGradient id="paint0_linear_1_130" x1="329.892" y1="451.422" x2="84.6034" y2="189.696" gradientUnits="userSpaceOnUse">
<stop stop-color="#3D8DAE"/>
<stop offset="1" stop-color="#3D8DAE" stop-opacity="0.58"/>
</linearGradient>
<linearGradient id="paint1_linear_1_130" x1="329.892" y1="451.422" x2="84.6034" y2="189.696" gradientUnits="userSpaceOnUse">
<stop stop-color="#3D8DAE"/>
<stop offset="1" stop-color="#3D8DAE" stop-opacity="0.58"/>
</linearGradient>
</defs>
</svg>
