<svg width="98" height="98" viewBox="0 0 98 98" fill="none" xmlns="http://www.w3.org/2000/svg">
<path d="M18.5653 56.7284L46.7234 83.18C47.6933 84.0911 48.1783 84.5467 48.7501 84.6589C49.0076 84.7095 49.2725 84.7095 49.53 84.6589C50.1018 84.5467 50.5868 84.0911 51.5567 83.18L79.7148 56.7285C87.6373 49.2861 88.5994 37.0389 81.9362 28.4508L80.6833 26.8359C72.7122 16.562 56.7121 18.2851 51.1111 30.0205C50.3199 31.6782 47.9602 31.6782 47.1691 30.0205C41.5681 18.285 25.5679 16.562 17.5968 26.8359L16.3439 28.4508C9.6807 37.0389 10.6428 49.2861 18.5653 56.7284Z" fill="#F8F8F8" stroke="#F8F8F8" stroke-width="8.1"/>
</svg>
