<svg width="273" height="109" viewBox="0 0 273 109" fill="none" xmlns="http://www.w3.org/2000/svg">
<g filter="url(#filter0_d_1_87)">
<rect x="7" y="6" width="253" height="89" rx="10" fill="#FBFBFB"/>
<path d="M117.623 53.5254L115.377 52.9883L116.188 45.7812H124.176V48.0566H118.502L118.15 51.2109C118.339 51.1003 118.626 50.9831 119.01 50.8594C119.394 50.7292 119.824 50.6641 120.299 50.6641C120.989 50.6641 121.601 50.7715 122.135 50.9863C122.669 51.2012 123.121 51.5137 123.492 51.9238C123.87 52.334 124.156 52.8353 124.352 53.4277C124.547 54.0202 124.645 54.6908 124.645 55.4395C124.645 56.071 124.547 56.6732 124.352 57.2461C124.156 57.8125 123.86 58.3203 123.463 58.7695C123.066 59.2122 122.568 59.5605 121.969 59.8145C121.37 60.0684 120.66 60.1953 119.84 60.1953C119.228 60.1953 118.635 60.1042 118.062 59.9219C117.496 59.7396 116.985 59.4694 116.529 59.1113C116.08 58.7533 115.719 58.3203 115.445 57.8125C115.178 57.2982 115.038 56.7122 115.025 56.0547H117.818C117.857 56.4583 117.962 56.8066 118.131 57.0996C118.307 57.3861 118.538 57.6074 118.824 57.7637C119.111 57.9199 119.446 57.998 119.83 57.998C120.188 57.998 120.494 57.9297 120.748 57.793C121.002 57.6562 121.207 57.4674 121.363 57.2266C121.52 56.9792 121.633 56.6927 121.705 56.3672C121.783 56.0352 121.822 55.6771 121.822 55.293C121.822 54.9089 121.777 54.5605 121.686 54.248C121.594 53.9355 121.454 53.6654 121.266 53.4375C121.077 53.2096 120.836 53.0339 120.543 52.9102C120.257 52.7865 119.921 52.7246 119.537 52.7246C119.016 52.7246 118.613 52.806 118.326 52.9688C118.046 53.1315 117.812 53.3171 117.623 53.5254ZM136.031 51.6406V54.1016C136.031 55.1693 135.917 56.0905 135.689 56.8652C135.462 57.6335 135.133 58.265 134.703 58.7598C134.28 59.248 133.775 59.6094 133.189 59.8438C132.604 60.0781 131.952 60.1953 131.236 60.1953C130.663 60.1953 130.13 60.1237 129.635 59.9805C129.14 59.8307 128.694 59.5996 128.297 59.2871C127.906 58.9746 127.568 58.5807 127.281 58.1055C127.001 57.6237 126.786 57.0508 126.637 56.3867C126.487 55.7227 126.412 54.9609 126.412 54.1016V51.6406C126.412 50.5729 126.526 49.6582 126.754 48.8965C126.988 48.1283 127.317 47.5 127.74 47.0117C128.17 46.5234 128.678 46.1654 129.264 45.9375C129.85 45.7031 130.501 45.5859 131.217 45.5859C131.79 45.5859 132.32 45.6608 132.809 45.8105C133.303 45.9538 133.749 46.1784 134.146 46.4844C134.544 46.7904 134.882 47.1842 135.162 47.666C135.442 48.1413 135.657 48.7109 135.807 49.375C135.956 50.0326 136.031 50.7878 136.031 51.6406ZM133.209 54.4727V51.2598C133.209 50.7454 133.18 50.2962 133.121 49.9121C133.069 49.528 132.988 49.2025 132.877 48.9355C132.766 48.6621 132.63 48.4408 132.467 48.2715C132.304 48.1022 132.118 47.9785 131.91 47.9004C131.702 47.8223 131.471 47.7832 131.217 47.7832C130.898 47.7832 130.615 47.8451 130.367 47.9688C130.126 48.0924 129.921 48.291 129.752 48.5645C129.583 48.8314 129.452 49.1895 129.361 49.6387C129.277 50.0814 129.234 50.6217 129.234 51.2598V54.4727C129.234 54.987 129.26 55.4395 129.312 55.8301C129.371 56.2207 129.456 56.556 129.566 56.8359C129.684 57.1094 129.82 57.334 129.977 57.5098C130.139 57.679 130.325 57.8027 130.533 57.8809C130.748 57.959 130.982 57.998 131.236 57.998C131.549 57.998 131.826 57.9362 132.066 57.8125C132.314 57.6823 132.522 57.4805 132.691 57.207C132.867 56.9271 132.997 56.5625 133.082 56.1133C133.167 55.6641 133.209 55.1172 133.209 54.4727ZM147.516 51.6406V54.1016C147.516 55.1693 147.402 56.0905 147.174 56.8652C146.946 57.6335 146.617 58.265 146.188 58.7598C145.764 59.248 145.26 59.6094 144.674 59.8438C144.088 60.0781 143.437 60.1953 142.721 60.1953C142.148 60.1953 141.614 60.1237 141.119 59.9805C140.624 59.8307 140.178 59.5996 139.781 59.2871C139.391 58.9746 139.052 58.5807 138.766 58.1055C138.486 57.6237 138.271 57.0508 138.121 56.3867C137.971 55.7227 137.896 54.9609 137.896 54.1016V51.6406C137.896 50.5729 138.01 49.6582 138.238 48.8965C138.473 48.1283 138.801 47.5 139.225 47.0117C139.654 46.5234 140.162 46.1654 140.748 45.9375C141.334 45.7031 141.985 45.5859 142.701 45.5859C143.274 45.5859 143.805 45.6608 144.293 45.8105C144.788 45.9538 145.234 46.1784 145.631 46.4844C146.028 46.7904 146.367 47.1842 146.646 47.666C146.926 48.1413 147.141 48.7109 147.291 49.375C147.441 50.0326 147.516 50.7878 147.516 51.6406ZM144.693 54.4727V51.2598C144.693 50.7454 144.664 50.2962 144.605 49.9121C144.553 49.528 144.472 49.2025 144.361 48.9355C144.251 48.6621 144.114 48.4408 143.951 48.2715C143.788 48.1022 143.603 47.9785 143.395 47.9004C143.186 47.8223 142.955 47.7832 142.701 47.7832C142.382 47.7832 142.099 47.8451 141.852 47.9688C141.611 48.0924 141.406 48.291 141.236 48.5645C141.067 48.8314 140.937 49.1895 140.846 49.6387C140.761 50.0814 140.719 50.6217 140.719 51.2598V54.4727C140.719 54.987 140.745 55.4395 140.797 55.8301C140.855 56.2207 140.94 56.556 141.051 56.8359C141.168 57.1094 141.305 57.334 141.461 57.5098C141.624 57.679 141.809 57.8027 142.018 57.8809C142.232 57.959 142.467 57.998 142.721 57.998C143.033 57.998 143.31 57.9362 143.551 57.8125C143.798 57.6823 144.007 57.4805 144.176 57.207C144.352 56.9271 144.482 56.5625 144.566 56.1133C144.651 55.6641 144.693 55.1172 144.693 54.4727ZM158.746 52.0801V54.5312H149V52.0801H158.746ZM155.211 48.2227V58.5742H152.545V48.2227H155.211ZM168.395 45V60H165.572V45H168.395ZM175.582 60.1953C174.762 60.1953 174.026 60.0651 173.375 59.8047C172.724 59.5378 172.171 59.1699 171.715 58.7012C171.266 58.2324 170.921 57.6888 170.68 57.0703C170.439 56.4453 170.318 55.7812 170.318 55.0781V54.6875C170.318 53.8867 170.432 53.1543 170.66 52.4902C170.888 51.8262 171.214 51.25 171.637 50.7617C172.066 50.2734 172.587 49.8991 173.199 49.6387C173.811 49.3717 174.501 49.2383 175.27 49.2383C176.018 49.2383 176.682 49.362 177.262 49.6094C177.841 49.8568 178.326 50.2083 178.717 50.6641C179.114 51.1198 179.413 51.6667 179.615 52.3047C179.817 52.9362 179.918 53.6393 179.918 54.4141V55.5859H171.52V53.7109H177.154V53.4961C177.154 53.1055 177.083 52.7572 176.939 52.4512C176.803 52.1387 176.594 51.8913 176.314 51.709C176.035 51.5267 175.676 51.4355 175.24 51.4355C174.869 51.4355 174.55 51.5169 174.283 51.6797C174.016 51.8424 173.798 52.0703 173.629 52.3633C173.466 52.6562 173.342 53.0013 173.258 53.3984C173.18 53.7891 173.141 54.2188 173.141 54.6875V55.0781C173.141 55.5013 173.199 55.8919 173.316 56.25C173.44 56.6081 173.613 56.9173 173.834 57.1777C174.062 57.4382 174.335 57.64 174.654 57.7832C174.98 57.9264 175.348 57.998 175.758 57.998C176.266 57.998 176.738 57.9004 177.174 57.7051C177.617 57.5033 177.997 57.2005 178.316 56.7969L179.684 58.2812C179.462 58.6003 179.16 58.9062 178.775 59.1992C178.398 59.4922 177.942 59.7331 177.408 59.9219C176.874 60.1042 176.266 60.1953 175.582 60.1953ZM187.232 57.0801C187.232 56.8783 187.174 56.696 187.057 56.5332C186.939 56.3704 186.721 56.2207 186.402 56.084C186.09 55.9408 185.637 55.8105 185.045 55.6934C184.511 55.5762 184.013 55.4297 183.551 55.2539C183.095 55.0716 182.698 54.8535 182.359 54.5996C182.027 54.3457 181.767 54.0462 181.578 53.7012C181.389 53.3496 181.295 52.9492 181.295 52.5C181.295 52.0573 181.389 51.6406 181.578 51.25C181.773 50.8594 182.05 50.5143 182.408 50.2148C182.773 49.9089 183.215 49.6712 183.736 49.502C184.264 49.3262 184.856 49.2383 185.514 49.2383C186.432 49.2383 187.219 49.3848 187.877 49.6777C188.541 49.9707 189.049 50.3743 189.4 50.8887C189.758 51.3965 189.938 51.9759 189.938 52.627H187.125C187.125 52.3535 187.066 52.1094 186.949 51.8945C186.839 51.6732 186.663 51.5007 186.422 51.377C186.188 51.2467 185.882 51.1816 185.504 51.1816C185.191 51.1816 184.921 51.237 184.693 51.3477C184.465 51.4518 184.29 51.5951 184.166 51.7773C184.049 51.9531 183.99 52.1484 183.99 52.3633C183.99 52.526 184.023 52.6725 184.088 52.8027C184.16 52.9264 184.273 53.0404 184.43 53.1445C184.586 53.2487 184.788 53.3464 185.035 53.4375C185.289 53.5221 185.602 53.6003 185.973 53.6719C186.734 53.8281 187.415 54.0332 188.014 54.2871C188.613 54.5345 189.088 54.873 189.439 55.3027C189.791 55.7259 189.967 56.2826 189.967 56.9727C189.967 57.4414 189.863 57.8711 189.654 58.2617C189.446 58.6523 189.146 58.9941 188.756 59.2871C188.365 59.5736 187.896 59.7982 187.35 59.9609C186.809 60.1172 186.201 60.1953 185.523 60.1953C184.54 60.1953 183.707 60.0195 183.023 59.668C182.346 59.3164 181.832 58.8704 181.48 58.3301C181.135 57.7832 180.963 57.2233 180.963 56.6504H183.629C183.642 57.0345 183.74 57.3438 183.922 57.5781C184.111 57.8125 184.348 57.9818 184.635 58.0859C184.928 58.1901 185.243 58.2422 185.582 58.2422C185.947 58.2422 186.249 58.1934 186.49 58.0957C186.731 57.9915 186.913 57.8548 187.037 57.6855C187.167 57.5098 187.232 57.3079 187.232 57.0801ZM197.506 57.0801C197.506 56.8783 197.447 56.696 197.33 56.5332C197.213 56.3704 196.995 56.2207 196.676 56.084C196.363 55.9408 195.911 55.8105 195.318 55.6934C194.785 55.5762 194.286 55.4297 193.824 55.2539C193.368 55.0716 192.971 54.8535 192.633 54.5996C192.301 54.3457 192.04 54.0462 191.852 53.7012C191.663 53.3496 191.568 52.9492 191.568 52.5C191.568 52.0573 191.663 51.6406 191.852 51.25C192.047 50.8594 192.324 50.5143 192.682 50.2148C193.046 49.9089 193.489 49.6712 194.01 49.502C194.537 49.3262 195.13 49.2383 195.787 49.2383C196.705 49.2383 197.493 49.3848 198.15 49.6777C198.814 49.9707 199.322 50.3743 199.674 50.8887C200.032 51.3965 200.211 51.9759 200.211 52.627H197.398C197.398 52.3535 197.34 52.1094 197.223 51.8945C197.112 51.6732 196.936 51.5007 196.695 51.377C196.461 51.2467 196.155 51.1816 195.777 51.1816C195.465 51.1816 195.195 51.237 194.967 51.3477C194.739 51.4518 194.563 51.5951 194.439 51.7773C194.322 51.9531 194.264 52.1484 194.264 52.3633C194.264 52.526 194.296 52.6725 194.361 52.8027C194.433 52.9264 194.547 53.0404 194.703 53.1445C194.859 53.2487 195.061 53.3464 195.309 53.4375C195.562 53.5221 195.875 53.6003 196.246 53.6719C197.008 53.8281 197.688 54.0332 198.287 54.2871C198.886 54.5345 199.361 54.873 199.713 55.3027C200.064 55.7259 200.24 56.2826 200.24 56.9727C200.24 57.4414 200.136 57.8711 199.928 58.2617C199.719 58.6523 199.42 58.9941 199.029 59.2871C198.639 59.5736 198.17 59.7982 197.623 59.9609C197.083 60.1172 196.474 60.1953 195.797 60.1953C194.814 60.1953 193.98 60.0195 193.297 59.668C192.62 59.3164 192.105 58.8704 191.754 58.3301C191.409 57.7832 191.236 57.2233 191.236 56.6504H193.902C193.915 57.0345 194.013 57.3438 194.195 57.5781C194.384 57.8125 194.622 57.9818 194.908 58.0859C195.201 58.1901 195.517 58.2422 195.855 58.2422C196.22 58.2422 196.523 58.1934 196.764 58.0957C197.005 57.9915 197.187 57.8548 197.311 57.6855C197.441 57.5098 197.506 57.3079 197.506 57.0801ZM201.617 54.8242V54.6191C201.617 53.8444 201.728 53.1315 201.949 52.4805C202.171 51.8229 202.493 51.2533 202.916 50.7715C203.339 50.2897 203.86 49.9154 204.479 49.6484C205.097 49.375 205.807 49.2383 206.607 49.2383C207.408 49.2383 208.121 49.375 208.746 49.6484C209.371 49.9154 209.895 50.2897 210.318 50.7715C210.748 51.2533 211.074 51.8229 211.295 52.4805C211.516 53.1315 211.627 53.8444 211.627 54.6191V54.8242C211.627 55.5924 211.516 56.3053 211.295 56.9629C211.074 57.6139 210.748 58.1836 210.318 58.6719C209.895 59.1536 209.374 59.528 208.756 59.7949C208.137 60.0618 207.428 60.1953 206.627 60.1953C205.826 60.1953 205.113 60.0618 204.488 59.7949C203.87 59.528 203.346 59.1536 202.916 58.6719C202.493 58.1836 202.171 57.6139 201.949 56.9629C201.728 56.3053 201.617 55.5924 201.617 54.8242ZM204.43 54.6191V54.8242C204.43 55.2669 204.469 55.6803 204.547 56.0645C204.625 56.4486 204.749 56.7871 204.918 57.0801C205.094 57.3665 205.322 57.5911 205.602 57.7539C205.882 57.9167 206.223 57.998 206.627 57.998C207.018 57.998 207.353 57.9167 207.633 57.7539C207.913 57.5911 208.137 57.3665 208.307 57.0801C208.476 56.7871 208.6 56.4486 208.678 56.0645C208.762 55.6803 208.805 55.2669 208.805 54.8242V54.6191C208.805 54.1895 208.762 53.7858 208.678 53.4082C208.6 53.0241 208.473 52.6855 208.297 52.3926C208.128 52.0931 207.903 51.8587 207.623 51.6895C207.343 51.5202 207.005 51.4355 206.607 51.4355C206.21 51.4355 205.872 51.5202 205.592 51.6895C205.318 51.8587 205.094 52.0931 204.918 52.3926C204.749 52.6855 204.625 53.0241 204.547 53.4082C204.469 53.7858 204.43 54.1895 204.43 54.6191ZM216.109 51.6895V60H213.297V49.4336H215.934L216.109 51.6895ZM215.699 54.3457H214.938C214.938 53.5645 215.038 52.8613 215.24 52.2363C215.442 51.6048 215.725 51.0677 216.09 50.625C216.454 50.1758 216.887 49.834 217.389 49.5996C217.896 49.3587 218.463 49.2383 219.088 49.2383C219.583 49.2383 220.035 49.3099 220.445 49.4531C220.855 49.5964 221.207 49.8242 221.5 50.1367C221.799 50.4492 222.027 50.8626 222.184 51.377C222.346 51.8913 222.428 52.5195 222.428 53.2617V60H219.596V53.252C219.596 52.7832 219.531 52.4186 219.4 52.1582C219.27 51.8978 219.078 51.7155 218.824 51.6113C218.577 51.5007 218.271 51.4453 217.906 51.4453C217.529 51.4453 217.2 51.5202 216.92 51.6699C216.646 51.8197 216.419 52.028 216.236 52.2949C216.061 52.5553 215.927 52.8613 215.836 53.2129C215.745 53.5645 215.699 53.9421 215.699 54.3457ZM230.279 57.0801C230.279 56.8783 230.221 56.696 230.104 56.5332C229.986 56.3704 229.768 56.2207 229.449 56.084C229.137 55.9408 228.684 55.8105 228.092 55.6934C227.558 55.5762 227.06 55.4297 226.598 55.2539C226.142 55.0716 225.745 54.8535 225.406 54.5996C225.074 54.3457 224.814 54.0462 224.625 53.7012C224.436 53.3496 224.342 52.9492 224.342 52.5C224.342 52.0573 224.436 51.6406 224.625 51.25C224.82 50.8594 225.097 50.5143 225.455 50.2148C225.82 49.9089 226.262 49.6712 226.783 49.502C227.311 49.3262 227.903 49.2383 228.561 49.2383C229.479 49.2383 230.266 49.3848 230.924 49.6777C231.588 49.9707 232.096 50.3743 232.447 50.8887C232.805 51.3965 232.984 51.9759 232.984 52.627H230.172C230.172 52.3535 230.113 52.1094 229.996 51.8945C229.885 51.6732 229.71 51.5007 229.469 51.377C229.234 51.2467 228.928 51.1816 228.551 51.1816C228.238 51.1816 227.968 51.237 227.74 51.3477C227.512 51.4518 227.337 51.5951 227.213 51.7773C227.096 51.9531 227.037 52.1484 227.037 52.3633C227.037 52.526 227.07 52.6725 227.135 52.8027C227.206 52.9264 227.32 53.0404 227.477 53.1445C227.633 53.2487 227.835 53.3464 228.082 53.4375C228.336 53.5221 228.648 53.6003 229.02 53.6719C229.781 53.8281 230.462 54.0332 231.061 54.2871C231.66 54.5345 232.135 54.873 232.486 55.3027C232.838 55.7259 233.014 56.2826 233.014 56.9727C233.014 57.4414 232.91 57.8711 232.701 58.2617C232.493 58.6523 232.193 58.9941 231.803 59.2871C231.412 59.5736 230.943 59.7982 230.396 59.9609C229.856 60.1172 229.247 60.1953 228.57 60.1953C227.587 60.1953 226.754 60.0195 226.07 59.668C225.393 59.3164 224.879 58.8704 224.527 58.3301C224.182 57.7832 224.01 57.2233 224.01 56.6504H226.676C226.689 57.0345 226.786 57.3438 226.969 57.5781C227.158 57.8125 227.395 57.9818 227.682 58.0859C227.975 58.1901 228.29 58.2422 228.629 58.2422C228.993 58.2422 229.296 58.1934 229.537 58.0957C229.778 57.9915 229.96 57.8548 230.084 57.6855C230.214 57.5098 230.279 57.3079 230.279 57.0801Z" fill="#3D8DAE"/>
<path d="M65 76V37C65 37 62 31 51.5 31C41 31 38 37 38 37V76C38 76 41 70 51.5 70C62 70 65 76 65 76Z" fill="#7E869E" fill-opacity="0.25"/>
<mask id="mask0_1_87" style="mask-type:alpha" maskUnits="userSpaceOnUse" x="38" y="31" width="27" height="45">
<path d="M65 76V37C65 37 62 31 51.5 31C41 31 38 37 38 37V76C38 76 41 70 51.5 70C62 70 65 76 65 76Z" fill="#222222"/>
</mask>
<g mask="url(#mask0_1_87)">
<path d="M44.4167 29.95C44.4167 29.7015 44.6181 29.5 44.8667 29.5H53.2167C53.4652 29.5 53.6667 29.7015 53.6667 29.95V41.0015C53.6667 41.6411 52.9175 41.9872 52.4305 41.5726L49.5278 39.1014C49.2476 38.8628 48.8357 38.8628 48.5555 39.1014L45.6528 41.5726C45.1658 41.9872 44.4167 41.6411 44.4167 41.0015V29.95Z" fill="#306C84"/>
</g>
<path d="M68 76V37C68 37 70.6667 31 80 31C89.3333 31 92 37 92 37V76C92 76 89.3333 70 80 70C70.6667 70 68 76 68 76Z" fill="#306C84"/>
</g>
<defs>
<filter id="filter0_d_1_87" x="0" y="0" width="273" height="109" filterUnits="userSpaceOnUse" color-interpolation-filters="sRGB">
<feFlood flood-opacity="0" result="BackgroundImageFix"/>
<feColorMatrix in="SourceAlpha" type="matrix" values="0 0 0 0 0 0 0 0 0 0 0 0 0 0 0 0 0 0 127 0" result="hardAlpha"/>
<feOffset dx="3" dy="4"/>
<feGaussianBlur stdDeviation="5"/>
<feComposite in2="hardAlpha" operator="out"/>
<feColorMatrix type="matrix" values="0 0 0 0 0 0 0 0 0 0 0 0 0 0 0 0 0 0 0.3 0"/>
<feBlend mode="normal" in2="BackgroundImageFix" result="effect1_dropShadow_1_87"/>
<feBlend mode="normal" in="SourceGraphic" in2="effect1_dropShadow_1_87" result="shape"/>
</filter>
</defs>
</svg>
