<svg width="98" height="98" viewBox="0 0 98 98" fill="none" xmlns="http://www.w3.org/2000/svg">
<mask id="path-1-outside-1_1_123" maskUnits="userSpaceOnUse" x="3.50992" y="3.49994" width="91" height="91" fill="black">
<rect fill="white" x="3.50992" y="3.49994" width="91" height="91"/>
<path d="M49.01 8.49994C58.3799 8.49994 67.4599 11.7488 74.7029 17.693C81.9459 23.6372 86.9038 31.9089 88.7318 41.0988C90.5598 50.2886 89.1447 59.828 84.7278 68.0915C80.3109 76.355 73.1653 82.8314 64.5087 86.4171C55.852 90.0028 46.2199 90.476 37.2534 87.756C28.287 85.0361 20.5411 79.2913 15.3355 71.5005C10.1298 63.7097 7.78659 54.355 8.705 45.0302C9.62341 35.7055 13.7467 26.9876 20.3722 20.3621L31.8273 31.8172C27.852 35.7925 25.378 41.0233 24.827 46.6181C24.2759 52.213 25.6819 57.8258 28.8053 62.5003C31.9286 67.1748 36.5762 70.6216 41.9561 72.2536C47.3359 73.8856 53.1152 73.6016 58.3092 71.4502C63.5032 69.2988 67.7905 65.413 70.4407 60.4549C73.0908 55.4968 73.9399 49.7732 72.8431 44.2592C71.7463 38.7453 68.7716 33.7823 64.4257 30.2158C60.0799 26.6493 54.6319 24.6999 49.01 24.6999V8.49994Z"/>
</mask>
<path d="M49.01 8.49994C58.3799 8.49994 67.4599 11.7488 74.7029 17.693C81.9459 23.6372 86.9038 31.9089 88.7318 41.0988C90.5598 50.2886 89.1447 59.828 84.7278 68.0915C80.3109 76.355 73.1653 82.8314 64.5087 86.4171C55.852 90.0028 46.2199 90.476 37.2534 87.756C28.287 85.0361 20.5411 79.2913 15.3355 71.5005C10.1298 63.7097 7.78659 54.355 8.705 45.0302C9.62341 35.7055 13.7467 26.9876 20.3722 20.3621L31.8273 31.8172C27.852 35.7925 25.378 41.0233 24.827 46.6181C24.2759 52.213 25.6819 57.8258 28.8053 62.5003C31.9286 67.1748 36.5762 70.6216 41.9561 72.2536C47.3359 73.8856 53.1152 73.6016 58.3092 71.4502C63.5032 69.2988 67.7905 65.413 70.4407 60.4549C73.0908 55.4968 73.9399 49.7732 72.8431 44.2592C71.7463 38.7453 68.7716 33.7823 64.4257 30.2158C60.0799 26.6493 54.6319 24.6999 49.01 24.6999V8.49994Z" fill="#F8F8F8"/>
<path d="M49.01 8.49994V4.44994H44.96V8.49994L49.01 8.49994ZM74.7029 17.693L77.2722 14.5623L74.7029 17.693ZM88.7318 41.0988L92.704 40.3087L88.7318 41.0988ZM64.5087 86.4171L66.0585 90.1588L64.5087 86.4171ZM37.2534 87.756L36.0778 91.6316L37.2534 87.756ZM15.3355 71.5005L11.968 73.7506L15.3355 71.5005ZM8.705 45.0302L4.6745 44.6333L8.705 45.0302ZM20.3722 20.3621L23.236 17.4983L20.3722 14.6345L17.5084 17.4983L20.3722 20.3621ZM31.8273 31.8172L34.6911 34.681L37.5549 31.8172L34.6911 28.9535L31.8273 31.8172ZM28.8053 62.5003L25.4378 64.7504L28.8053 62.5003ZM41.9561 72.2536L40.7804 76.1292L41.9561 72.2536ZM58.3092 71.4502L56.7593 67.7085L58.3092 71.4502ZM70.4407 60.4549L74.0125 62.364L70.4407 60.4549ZM72.8431 44.2592L68.8709 45.0494L72.8431 44.2592ZM64.4257 30.2158L66.995 27.0851L64.4257 30.2158ZM49.01 24.6999H44.96V28.7499L49.01 28.7499V24.6999ZM49.01 12.5499C57.4429 12.5499 65.6149 15.4739 72.1336 20.8237L77.2722 14.5623C69.3049 8.02371 59.3169 4.44994 49.01 4.44994V12.5499ZM72.1336 20.8237C78.6523 26.1735 83.1144 33.618 84.7596 41.8889L92.704 40.3087C90.6932 30.1998 85.2395 21.1009 77.2722 14.5623L72.1336 20.8237ZM84.7596 41.8889C86.4048 50.1598 85.1313 58.7452 81.156 66.1824L88.2996 70.0007C93.1582 60.9108 94.7147 50.4175 92.704 40.3087L84.7596 41.8889ZM81.156 66.1824C77.1808 73.6195 70.7498 79.4482 62.9588 82.6753L66.0585 90.1588C75.5808 86.2145 83.4409 79.0905 88.2996 70.0007L81.156 66.1824ZM62.9588 82.6753C55.1678 85.9025 46.4989 86.3284 38.4291 83.8804L36.0778 91.6316C45.9409 94.6236 56.5362 94.103 66.0585 90.1588L62.9588 82.6753ZM38.4291 83.8804C30.3593 81.4325 23.388 76.2622 18.7029 69.2505L11.968 73.7506C17.6942 82.3204 26.2147 88.6397 36.0778 91.6316L38.4291 83.8804ZM18.7029 69.2505C14.0178 62.2388 11.9089 53.8195 12.7355 45.4272L4.6745 44.6333C3.66425 54.8905 6.24181 65.1807 11.968 73.7506L18.7029 69.2505ZM12.7355 45.4272C13.5621 37.0349 17.273 29.1888 23.2359 23.2259L17.5084 17.4983C10.2203 24.7864 5.68476 34.376 4.6745 44.6333L12.7355 45.4272ZM17.5084 23.2259L28.9635 34.681L34.6911 28.9535L23.236 17.4983L17.5084 23.2259ZM28.9635 28.9535C24.3257 33.5913 21.4394 39.6938 20.7965 46.2211L28.8575 47.0151C29.3167 42.3527 31.3783 37.9938 34.6911 34.681L28.9635 28.9535ZM20.7965 46.2211C20.1536 52.7485 21.7939 59.2968 25.4378 64.7504L32.1727 60.2502C29.5699 56.3548 28.3983 51.6775 28.8575 47.0151L20.7965 46.2211ZM25.4378 64.7504C29.0818 70.2039 34.5039 74.2252 40.7804 76.1292L43.1317 68.378C38.6485 67.018 34.7755 64.1456 32.1727 60.2502L25.4378 64.7504ZM40.7804 76.1292C47.0569 78.0331 53.7994 77.7019 59.8591 75.1919L56.7593 67.7085C52.431 69.5014 47.6149 69.7379 43.1317 68.378L40.7804 76.1292ZM59.8591 75.1919C65.9187 72.6819 70.9206 68.1485 74.0125 62.364L66.8689 58.5457C64.6604 62.6775 61.0876 65.9157 56.7593 67.7085L59.8591 75.1919ZM74.0125 62.364C77.1043 56.5796 78.0948 49.902 76.8153 43.4691L68.8709 45.0494C69.7849 49.6443 69.0774 54.414 66.8689 58.5457L74.0125 62.364ZM76.8153 43.4691C75.5357 37.0362 72.0652 31.246 66.995 27.0851L61.8565 33.3465C65.478 36.3186 67.9569 40.4544 68.8709 45.0494L76.8153 43.4691ZM66.995 27.0851C61.9249 22.9242 55.5689 20.6499 49.01 20.6499V28.7499C53.6949 28.7499 58.2349 30.3744 61.8565 33.3465L66.995 27.0851ZM53.06 24.6999V8.49994L44.96 8.49994L44.96 24.6999H53.06Z" fill="#F8F8F8" mask="url(#path-1-outside-1_1_123)"/>
<path d="M49.01 49.0002L20.66 20.6502" stroke="#F8F8F8" stroke-width="8.1" stroke-linecap="round"/>
</svg>
