<svg width="98" height="98" viewBox="0 0 98 98" fill="none" xmlns="http://www.w3.org/2000/svg">
<path fill-rule="evenodd" clip-rule="evenodd" d="M48.69 28.7491V8.49915H40.59C29.1349 8.49915 23.4073 8.49915 19.8487 12.0578C16.29 15.6165 16.29 21.344 16.29 32.7991V65.1992C16.29 76.6543 16.29 82.3818 19.8487 85.9405C23.4073 89.4991 29.1349 89.4991 40.59 89.4991H56.79C68.2452 89.4991 73.9727 89.4991 77.5314 85.9405C81.09 82.3818 81.09 76.6543 81.09 65.1992V40.8991H60.84L60.6197 40.8992H60.6196H60.6196C58.9021 40.8995 57.2331 40.8998 55.8564 40.7148C54.3045 40.5061 52.5335 39.9977 51.0625 38.5267C49.5915 37.0557 49.0831 35.2847 48.8744 33.7327C48.6893 32.3561 48.6897 30.6871 48.69 28.9696V28.9696V28.9695L48.69 28.7491ZM56.79 28.7491V8.51786C58.4572 8.55914 59.5604 8.69148 60.5846 9.11572C62.0732 9.7323 63.2438 10.9029 65.5849 13.244L76.3452 24.0043C78.6863 26.3454 79.8569 27.516 80.4735 29.0045C80.8977 30.0288 81.03 31.132 81.0713 32.7991H60.84C58.8164 32.7991 57.706 32.7905 56.9357 32.687L56.9062 32.6829L56.9022 32.6534C56.7986 31.8832 56.79 30.7728 56.79 28.7491ZM43.9826 49.5011L58.1433 56.4601C61.7389 58.227 61.7389 64.072 58.1433 65.8389L43.9826 72.7979C40.4593 74.5293 36.54 71.5659 36.54 67.1706V55.1284C36.54 50.7331 40.4593 47.7697 43.9826 49.5011Z" fill="#F8F8F8"/>
</svg>
